<mxfile host="app.diagrams.net" modified="2022-04-17T03:34:20.429Z" agent="5.0 (X11; Linux x86_64) AppleWebKit/537.36 (KHTML, like Gecko) Chrome/99.0.4844.82 Safari/537.36" etag="AhzvMsyUSRsrBlEkoQof" version="17.4.5" type="github">
  <diagram name="Page-1" id="e7e014a7-5840-1c2e-5031-d8a46d1fe8dd">
    <mxGraphModel dx="1036" dy="611" grid="0" gridSize="10" guides="1" tooltips="1" connect="1" arrows="1" fold="1" page="1" pageScale="1" pageWidth="1169" pageHeight="826" background="none" math="0" shadow="0">
      <root>
        <mxCell id="0" />
        <mxCell id="1" parent="0" />
        <mxCell id="2" value="用户" style="swimlane;whiteSpace=wrap" parent="1" vertex="1">
          <mxGeometry x="164.5" y="128" width="280" height="570" as="geometry" />
        </mxCell>
        <mxCell id="5" value="" style="ellipse;shape=startState;fillColor=#000000;strokeColor=#ff0000;" parent="2" vertex="1">
          <mxGeometry x="100" y="40" width="30" height="30" as="geometry" />
        </mxCell>
        <mxCell id="6" value="" style="edgeStyle=elbowEdgeStyle;elbow=horizontal;verticalAlign=bottom;endArrow=open;endSize=8;strokeColor=#FF0000;endFill=1;rounded=0" parent="2" source="5" edge="1">
          <mxGeometry x="100" y="40" as="geometry">
            <mxPoint x="115.5" y="110" as="targetPoint" />
          </mxGeometry>
        </mxCell>
        <mxCell id="_j-61bVuQnR4RduToRUM-41" value="输入用户名密码登录" style="html=1;rounded=1;absoluteArcSize=0;arcSize=50;" vertex="1" parent="2">
          <mxGeometry x="52.75" y="110" width="124.5" height="32" as="geometry" />
        </mxCell>
        <mxCell id="3" value="登录/注册页面" style="swimlane;whiteSpace=wrap" parent="1" vertex="1">
          <mxGeometry x="444.5" y="128" width="280" height="570" as="geometry" />
        </mxCell>
        <mxCell id="4" value="数据库" style="swimlane;whiteSpace=wrap" parent="1" vertex="1">
          <mxGeometry x="724.5" y="128" width="280" height="570" as="geometry" />
        </mxCell>
        <mxCell id="_j-61bVuQnR4RduToRUM-43" value="检查是否存在该用户" style="html=1;rounded=1;absoluteArcSize=0;arcSize=50;" vertex="1" parent="4">
          <mxGeometry x="74.5" y="110" width="124.5" height="32" as="geometry" />
        </mxCell>
        <mxCell id="_j-61bVuQnR4RduToRUM-46" value="" style="rhombus;whiteSpace=wrap;html=1;rounded=0;" vertex="1" parent="4">
          <mxGeometry x="114.12" y="193" width="45.25" height="43" as="geometry" />
        </mxCell>
        <mxCell id="_j-61bVuQnR4RduToRUM-45" value="" style="edgeStyle=orthogonalEdgeStyle;rounded=0;orthogonalLoop=1;jettySize=auto;html=1;" edge="1" parent="4" source="_j-61bVuQnR4RduToRUM-43" target="_j-61bVuQnR4RduToRUM-46">
          <mxGeometry relative="1" as="geometry">
            <mxPoint x="153.794117647059" y="198.044117647059" as="targetPoint" />
          </mxGeometry>
        </mxCell>
        <mxCell id="_j-61bVuQnR4RduToRUM-42" style="edgeStyle=orthogonalEdgeStyle;rounded=0;orthogonalLoop=1;jettySize=auto;html=1;entryX=0;entryY=0.5;entryDx=0;entryDy=0;" edge="1" parent="1" source="_j-61bVuQnR4RduToRUM-41" target="_j-61bVuQnR4RduToRUM-43">
          <mxGeometry relative="1" as="geometry">
            <mxPoint x="822.4117072610295" y="254" as="targetPoint" />
          </mxGeometry>
        </mxCell>
      </root>
    </mxGraphModel>
  </diagram>
</mxfile>
